nColumns=19
nRows=39
DataType=double
version=3
OpenSimVersion=4.1
endheader
time	ground_force_1_vx	ground_force_1_vy	ground_force_1_vz	ground_force_1_px	ground_force_1_py	ground_force_1_pz	ground_force_1_mx	ground_force_1_my	ground_force_1_mz	ground_force_2_vx	ground_force_2_vy	ground_force_2_vz	ground_force_2_px	ground_force_2_py	ground_force_2_pz	ground_force_2_mx	ground_force_2_my	ground_force_2_mz
2.75	-152.464	1449.77	-17.1104	0.809984	0	-0.281725	-0	2.20454	-0	0	0	0	-0.00166321	0	-0.000990467	0	0	0
2.76	-126.279	1442.09	-57.0095	0.782639	0	-0.279736	0	-0.299026	0	0	0	0	-0.00166321	0	-0.000990446	0	0	0
2.77	-101.858	1413.1	-79.0286	0.750571	0	-0.278451	0	-2.96086	0	0	0	0	-0.00166321	0	-0.000990424	0	0	0
2.78	-69.5622	1385.11	-57.0628	0.709865	0	-0.277321	0	-4.39167	0	0	0	0	-0.00166322	0	-0.000990402	0	0	0
2.79	-15.2574	1346.94	-32.9671	0.661231	0	-0.276496	0	-4.32985	0	0	0	0	-0.00166322	0	-0.000990378	0	0	0
2.8	58.2548	1286	-20.3036	0.609257	0	-0.276301	0	-3.54556	0	0	0	0	-0.00166322	0	-0.000990353	0	0	0
2.81	132.755	1200.92	-4.38667	0.559137	0	-0.276694	0	-3.01517	0	0	0	0	-0.00166323	0	-0.000990328	0	0	0
2.82	199.169	1088.26	20.0621	0.513581	0	-0.2773	0	-3.18547	0	0	0	0	-0.00166323	0	-0.000990301	0	0	0
2.83	249.492	938.378	47.4525	0.4724	0	-0.277721	0	-3.76449	0	0	0	0	-0.00166323	0	-0.000990274	0	0	0
2.84	264.543	746.634	67.2807	0.433218	0	-0.277666	0	-4.09371	0	0	0	0	-0.00166324	0	-0.000990246	0	0	0
2.85	230.105	524.272	68.6764	0.391027	0	-0.276812	0	-3.67716	0	0	0	0	-0.00166324	0	-0.000990217	0	0	0
2.86	166.36	310.912	50.6676	0.334604	0	-0.274101	0	-2.28773	0	0	0	0	-0.00166325	0	-0.000990187	0	0	0
2.87	101.801	154.418	26.4046	0.229694	0	-0.264276	-0	0.185407	-0	0	0	0	-0.00166325	0	-0.000990156	0	0	0
2.88	49.1167	67.4138	9.35939	-0.170805	0	-0.187252	-0	3.2825	-0	0	0	0	-0.00166325	0	-0.000990125	0	0	0
2.89	14.5839	27.8049	1.01929	-0.00166248	0	-0.000992	0	0	0	0	0	0	-0.00166326	0	-0.000990092	0	0	0
2.9	-0.868627	12.7078	-2.28448	-0.00166249	0	-0.000991961	0	0	0	0	0	0	-0.00166326	0	-0.000990059	0	0	0
2.91	0	0	0	-0.0016625	0	-0.000991921	0	0	0	0	0	0	-0.00166327	0	-0.000990025	0	0	0
2.92	0	0	0	-0.0016625	0	-0.000991881	0	0	0	0	0	0	-0.00166327	0	-0.00098999	0	0	0
2.93	0	0	0	-0.00166251	0	-0.000991839	0	0	0	0	0	0	-0.00166328	0	-0.000989954	0	0	0
2.94	0	0	0	-0.00166252	0	-0.000991797	0	0	0	-1.45941	11.6906	-4.46582	-0.00166328	0	-0.000989917	0	0	0
2.95	0	0	0	-0.00166252	0	-0.000991753	0	0	0	-2.02822	31.4619	-2.88279	1.02738	0	-0.321156	-0	3.87417	-0
2.96	0	0	0	-0.00166253	0	-0.000991709	0	0	0	-5.01016	112.239	-7.1418	0.918541	0	-0.349447	-0	1.842	-0
2.97	0	0	0	-0.00166254	0	-0.000991664	0	0	0	-10.6406	344.428	-15.536	0.949477	0	-0.332281	0	-1.21378	0
2.98	0	0	0	-0.00166255	0	-0.000991617	0	0	0	-30.6137	745.96	-4.33084	0.951555	0	-0.327246	0	-4.46994	0
2.99	0	0	0	-0.00166256	0	-0.00099157	0	0	0	-79.1828	1087.1	27.5834	0.948427	0	-0.324996	0	-7.42288	0
3	0	0	0	-0.00166256	0	-0.000991522	0	0	0	-139.084	1154.18	11.3927	0.939569	0	-0.325195	0	-9.23712	0
3.01	0	0	0	-0.00166257	0	-0.000991473	0	0	0	-182.26	1084.28	-68.1138	0.920478	0	-0.327933	0	-9.33289	0
3.02	0	0	0	-0.00166258	0	-0.000991423	0	0	0	-197.437	1076.79	-74.7977	0.886872	0	-0.33203	0	-8.35349	0
3.03	0	0	0	-0.00166259	0	-0.000991372	0	0	0	-182.165	1159.71	35.5983	0.843155	0	-0.335299	0	-7.58608	0
3.04	0	0	0	-0.0016626	0	-0.000991321	0	0	0	-140.566	1260.2	106.037	0.800962	0	-0.337145	0	-7.29544	0
3.05	0	0	0	-0.00166261	0	-0.000991268	0	0	0	-92.6437	1318.34	62.6931	0.765716	0	-0.338451	0	-6.52085	0
3.06	0	0	0	-0.00166261	0	-0.000991215	0	0	0	-57.259	1335.02	17.3694	0.734901	0	-0.339549	0	-4.73042	0
3.07	0	0	0	-0.00166262	0	-0.00099116	0	0	0	-29.8708	1331.73	37.4199	0.704214	0	-0.340274	0	-2.77189	0
3.08	0	0	0	-0.00166263	0	-0.000991105	0	0	0	1.40845	1309.71	58.5539	0.67037	0	-0.34061	0	-1.87745	0
3.09	0	0	0	-0.00166264	0	-0.000991049	0	0	0	39.3589	1259.82	42.4829	0.631656	0	-0.340495	0	-2.37926	0
3.1	0	0	0	-0.00166265	0	-0.000990992	0	0	0	87.812	1180.67	18.7366	0.588106	0	-0.33962	0	-3.63113	0
3.11	0	0	0	-0.00166266	0	-0.000990935	0	0	0	149.81	1069.65	0.680253	0.541489	0	-0.337832	0	-4.67837	0
3.12	0	0	0	-0.00166267	0	-0.000990876	0	0	0	208.046	925.695	-17.8556	0.494544	0	-0.335529	0	-4.69383	0
3.13	0	0	0	-0.00166268	0	-0.000990817	0	0	0	231.124	751.73	-32.9936	0.448991	0	-0.333551	0	-3.04802	0
